Coordinates
version=1
nRows=18
nColumns=22
inDegrees=yes

Units are S.I. units (second, meters, Newtons, ...)
If the header above contains a line with 'inDegrees', this indicates whether rotational values are in degrees (yes) or radians (no).

endheader
time	pelvis_tilt	pelvis_list	pelvis_rotation	pelvis_tx	pelvis_ty	pelvis_tz	hip_flexion_r	hip_adduction_r	hip_rotation_r	knee_angle_r	ankle_angle_r	subtalar_angle_r	hip_flexion_l	hip_adduction_l	hip_rotation_l	knee_angle_l	ankle_angle_l	subtalar_angle_l	lumbar_extension	lumbar_bending	lumbar_rotation
      3.15000000	     -2.30221229	     -1.33379592	      0.41974626	     -0.82060624	      0.97806675	     -0.03558288	     28.81501332	     -0.07048922	     -5.57879977	    -13.81745273	      3.75480981	      8.65154446	    -11.55970841	      0.08521177	     -4.34788568	    -14.12602590	     17.91394647	      0.25008664	     -6.60800994	     -0.56975948	     -5.89034131
      3.16000000	     -2.42730170	     -1.61595111	      0.57723996	     -0.80928700	      0.97816949	     -0.03417188	     28.79708302	      0.22098260	     -5.83596134	    -14.64440655	      3.04380013	      8.19867434	    -11.80908119	     -0.38395752	     -4.07089483	    -14.65277799	     17.22628738	      1.00374265	     -6.32515246	     -0.20824681	     -5.92204961
      3.17000000	     -2.56287050	     -1.93468083	      0.70505174	     -0.79782850	      0.97855052	     -0.03264164	     28.76284043	      0.56045876	     -6.09126992	    -15.45915757	      2.32327090	      7.76319500	    -11.98984970	     -0.89383169	     -3.83905471	    -15.27404134	     16.39912326	      1.78701126	     -6.01819327	      0.18925639	     -5.92457676
      3.18000000	     -2.70371207	     -2.28119989	      0.80071167	     -0.78625909	      0.97919770	     -0.03100263	     28.70351102	      0.94090355	     -6.33197702	    -16.24506394	      1.64014268	      7.37224331	    -12.09177055	     -1.43231388	     -3.66391246	    -16.01260555	     15.44049068	      2.56877166	     -5.69366181	      0.61147867	     -5.89768935
      3.19000000	     -2.84484927	     -2.64021450	      0.86845461	     -0.77459935	      0.98010144	     -0.02927892	     28.60560214	      1.34979426	     -6.52252738	    -16.98348845	      1.03761176	      7.02119702	    -12.11119269	     -1.98291802	     -3.56165672	    -16.87648425	     14.33565927	      3.33864371	     -5.35857486	      1.04466193	     -5.85021435
      3.20000000	     -2.98218100	     -3.00341302	      0.90760387	     -0.76288317	      0.98123746	     -0.02748682	     28.46293408	      1.78002780	     -6.66217477	    -17.66638557	      0.53829622	      6.72968986	    -12.03944253	     -2.53596388	     -3.54241106	    -17.88359490	     13.09456418	      4.03778102	     -5.02040391	      1.48062031	     -5.78900552
      3.21000000	     -3.10691684	     -3.35440493	      0.92159159	     -0.75112037	      0.98258565	     -0.02563134	     28.26328437	      2.21824924	     -6.74668551	    -18.29004781	      0.18401829	      6.43769974	    -11.88637960	     -3.07590959	     -3.60478596	    -19.02551358	     11.70813347	      4.69336881	     -4.68749448	      1.89708222	     -5.70030179
      3.22000000	     -3.21738467	     -3.69184273	      0.92563071	     -0.73937120	      0.98411041	     -0.02373618	     27.99535502	      2.66081436	     -6.77073743	    -18.83010596	     -0.04407125	      6.17522744	    -11.62488630	     -3.61143818	     -3.77342995	    -20.34359055	     10.20244162	      5.20696941	     -4.36752510	      2.29470137	     -5.62299848
      3.23000000	     -3.31056689	     -4.00894556	      0.92500332	     -0.72765832	      0.98578096	     -0.02180520	     27.65108690	      3.10366585	     -6.72295612	    -19.27488142	     -0.15632112	      5.94421990	    -11.25848192	     -4.14016767	     -4.03796897	    -21.83004577	      8.58252196	      5.55588432	     -4.06538699	      2.66552854	     -5.56025177
      3.24000000	     -3.38554659	     -4.30616910	      0.92684665	     -0.71600135	      0.98754676	     -0.01983455	     27.23481889	      3.54358510	     -6.65225696	    -19.63103331	     -0.13320323	      5.62847822	    -10.78190257	     -4.67362262	     -4.40730864	    -23.48984214	      6.89938969	      5.81493181	     -3.78164694	      3.00348204	     -5.50064440
      3.25000000	     -3.43779022	     -4.57763389	      0.94830029	     -0.70444361	      0.98936515	     -0.01784686	     26.75359348	      3.96788150	     -6.57059857	    -19.91773502	      0.01084141	      5.17570705	    -10.19619486	     -5.21556190	     -4.86220701	    -25.31723475	      5.19663482	      5.92138454	     -3.52637795	      3.30262853	     -5.47387597
      3.26000000	     -3.47325580	     -4.85132037	      0.98362413	     -0.69302030	      0.99121730	     -0.01582924	     26.19940909	      4.40997357	     -6.44158968	    -20.09414683	      0.19542022	      4.83571470	     -9.49759712	     -5.80015861	     -5.39243512	    -27.30474321	      3.51312434	      5.91197435	     -3.29740935	      3.59644155	     -5.46624740
      3.27000000	     -3.50207447	     -5.11167065	      1.05410857	     -0.68174048	      0.99302255	     -0.01380368	     25.59416793	      4.83890897	     -6.35592944	    -20.17897737	      0.46155905	      4.34931315	     -8.67375985	     -6.42416923	     -5.98588338	    -29.44323320	      1.94627658	      5.73831954	     -3.08045494	      3.85868692	     -5.48567593
      3.28000000	     -3.50970848	     -5.35906206	      1.15881158	     -0.67064981	      0.99477621	     -0.01180145	     24.95004641	      5.25249344	     -6.29106321	    -20.22066832	      0.79252203	      3.76308122	     -7.75846976	     -7.07278634	     -6.55913295	    -31.68974721	      0.52655908	      5.41563000	     -2.90337050	      4.09754124	     -5.52838964
      3.29000000	     -3.50392545	     -5.63354727	      1.28860091	     -0.65974037	      0.99646837	     -0.00980113	     24.25219451	      5.69378945	     -6.24062396	    -20.16270868	      1.10313753	      3.35854548	     -6.74993059	     -7.79714374	     -7.14392932	    -34.02924618	     -0.62815187	      5.18105625	     -2.75318316	      4.35774550	     -5.58405256
      3.30000000	     -3.49374389	     -5.88626793	      1.45197835	     -0.64906194	      0.99804265	     -0.00785978	     23.54817957	      6.10350072	     -6.22742945	    -20.07968848	      1.46645955	      2.80070976	     -5.65230658	     -8.51295692	     -7.62305328	    -36.41433451	     -1.51195522	      4.77429579	     -2.62960672	      4.58332562	     -5.64461718
      3.31000000	     -3.45108719	     -6.16564217	      1.63230132	     -0.63858452	      0.99956147	     -0.00597335	     22.79605196	      6.53226350	     -6.25175148	    -19.94153838	      1.80838524	      2.47735394	     -4.51107962	     -9.27283612	     -8.04424121	    -38.81279609	     -2.04383658	      4.54061388	     -2.56201348	      4.83665688	     -5.68530688
      3.32000000	     -3.42134105	     -6.40846822	      1.83693964	     -0.62832892	      1.00095429	     -0.00417647	     22.04813525	      6.91484071	     -6.28088983	    -19.76145826	      2.16123756	      2.07361632	     -3.28734674	     -9.98045861	     -8.34013652	    -41.17887815	     -2.25098650	      4.19930001	     -2.49725095	      5.04180272	     -5.74599598
